<?xml version="1.0" encoding="UTF-8"?>
<svg viewBox="0 0 32 32" xmlns="http://www.w3.org/2000/svg">
<path d="M0,0H32V32H0Z" fill="none" data-name="Rectangle 2 Copy 6"/>
<g transform="translate(2.921 2.921)" fill="#fff" data-name="Group 1369">
<path d="M13.079,5.7c2.4,0,2.688.009,3.637.052a4.981,4.981,0,0,1,1.671.31A2.981,2.981,0,0,1,20.1,7.771a4.981,4.981,0,0,1,.31,1.671c.043.949.052,1.234.052,3.637s-.009,2.688-.052,3.637a4.982,4.982,0,0,1-.31,1.671A2.981,2.981,0,0,1,18.387,20.1a4.982,4.982,0,0,1-1.671.31c-.949.043-1.233.052-3.637.052s-2.688-.009-3.637-.052a4.981,4.981,0,0,1-1.671-.31,2.981,2.981,0,0,1-1.708-1.708,4.981,4.981,0,0,1-.31-1.671c-.043-.949-.052-1.234-.052-3.637s.009-2.688.052-3.637a4.981,4.981,0,0,1,.31-1.671A2.981,2.981,0,0,1,7.771,6.063a4.981,4.981,0,0,1,1.671-.31c.949-.043,1.234-.052,3.637-.052m0-1.622c-2.444,0-2.751.01-3.711.054a6.606,6.606,0,0,0-2.185.418A4.6,4.6,0,0,0,4.552,7.184a6.606,6.606,0,0,0-.418,2.185c-.044.96-.054,1.266-.054,3.711s.01,2.751.054,3.711a6.606,6.606,0,0,0,.418,2.185,4.6,4.6,0,0,0,2.632,2.632,6.606,6.606,0,0,0,2.185.418c.96.044,1.266.054,3.711.054s2.751-.01,3.711-.054a6.606,6.606,0,0,0,2.185-.418,4.6,4.6,0,0,0,2.632-2.632,6.606,6.606,0,0,0,.418-2.185c.044-.96.054-1.266.054-3.711s-.01-2.751-.054-3.711a6.606,6.606,0,0,0-.418-2.185,4.6,4.6,0,0,0-2.632-2.632,6.606,6.606,0,0,0-2.185-.418c-.96-.044-1.266-.054-3.711-.054Z" data-name="Path 524"/>
<path transform="translate(-118.18 -118.18)" d="m131.26 126.64a4.622 4.622 0 1 0 4.622 4.622 4.622 4.622 0 0 0-4.622-4.622zm0 7.622a3 3 0 1 1 3-3 3 3 0 0 1-3 3z" data-name="Path 525"/>
<circle transform="translate(16.803 7.195)" cx="1.08" cy="1.08" r="1.08" data-name="Ellipse 9"/>
</g>
</svg>
