<?xml version="1.0" encoding="UTF-8"?>
<svg viewBox="0 0 32 32" xmlns="http://www.w3.org/2000/svg">
<g transform="translate(-2)" data-name="Group 4">
<path transform="translate(2)" d="M0,0H32V32H0Z" fill="none" data-name="Rectangle 2 Copy 7"/>
<g transform="translate(9.273 8.529)" data-name="twitter copy">
<path transform="translate(.727 .471)" d="M15.016,3.787a9.638,9.638,0,0,1-9.757,9.663A9.774,9.774,0,0,1,0,11.924a7.029,7.029,0,0,0,.818.048,6.929,6.929,0,0,0,4.26-1.453,3.429,3.429,0,0,1-3.2-2.358,3.541,3.541,0,0,0,.645.059,3.473,3.473,0,0,0,.9-.118A3.408,3.408,0,0,1,.672,4.771V4.729a3.449,3.449,0,0,0,1.554.426A3.387,3.387,0,0,1,.7,2.327,3.349,3.349,0,0,1,1.164.62,9.77,9.77,0,0,0,8.235,4.169,3.4,3.4,0,0,1,11.576,0a3.442,3.442,0,0,1,2.5,1.071A6.951,6.951,0,0,0,16.259.247,3.415,3.415,0,0,1,14.75,2.126a6.916,6.916,0,0,0,1.97-.534,6.889,6.889,0,0,1-1.712,1.757C15.016,3.494,15.018,3.642,15.016,3.787Z" fill="#fff"/>
</g>
</g>
</svg>
