<?xml version="1.0" encoding="UTF-8"?>
<svg viewBox="0 0 32 32" xmlns="http://www.w3.org/2000/svg">
<g transform="translate(-2)" data-name="Group 9 Copy 2">
<path transform="translate(2)" d="M0,0H32V32H0Z" fill="none" data-name="Rectangle 2 Copy 6"/>
<path transform="translate(-1 -26)" d="M30.519,36.5a2.872,2.872,0,0,0-2.033-2.021C26.692,34,19.5,34,19.5,34s-7.192,0-8.986.478A2.872,2.872,0,0,0,8.481,36.5a31.726,31.726,0,0,0,0,11,2.872,2.872,0,0,0,2.033,2.021C12.308,50,19.5,50,19.5,50s7.192,0,8.986-.478A2.872,2.872,0,0,0,30.519,47.5a31.726,31.726,0,0,0,0-11ZM17.148,45.377V38.623L23.159,42Z" fill="#fff" data-name="Path 523"/>
</g>
</svg>
